<!-- Generated by IcoMoon.io -->
<svg version="1.1" xmlns="http://www.w3.org/2000/svg" width="32" height="32" viewBox="0 0 32 32">
<title>box</title>
<path d="M9.75 23.125c-0.345 0-0.625 0.28-0.625 0.625s0.28 0.625 0.625 0.625 0.625-0.28 0.625-0.625c0-0.345-0.28-0.625-0.625-0.625z"></path>
<path d="M28.134 11.875l3.683-3.683c0.155-0.155 0.217-0.38 0.165-0.592s-0.213-0.382-0.422-0.447l-8.969-2.768c-0.808-2.599-3.212-4.385-5.966-4.385-2.56 0-4.85 1.56-5.798 3.914l-10.388 3.239c-0.209 0.065-0.368 0.235-0.421 0.447s0.010 0.437 0.165 0.591l3.78 3.78-2.384 3.973c-0.098 0.163-0.116 0.361-0.050 0.538s0.209 0.316 0.389 0.376l3.458 1.152v9.613c0 0.261 0.162 0.494 0.406 0.585 2.114 0.793 9.97 3.739 10.012 3.754 0.124 0.044 0.264 0.050 0.4 0.006 0.002-0.001 0.004-0.001 0.006-0.002l11.25-3.75c0.255-0.085 0.427-0.324 0.427-0.593v-9.87l3.687-1.159c0.209-0.066 0.368-0.235 0.42-0.447s-0.011-0.436-0.165-0.591l-3.683-3.683zM22.875 6.25c0-0.159-0.007-0.317-0.019-0.475l7.343 2.267-3.119 3.119-5.096-1.698c0.577-0.964 0.889-2.077 0.889-3.212zM11.895 4.623c0.694-2.018 2.595-3.373 4.73-3.373 2.3 0 4.295 1.556 4.851 3.783 0.099 0.396 0.149 0.805 0.149 1.217 0 1.161-0.385 2.249-1.114 3.147-0.955 1.178-2.371 1.853-3.886 1.853-1.637 0-3.173-0.804-4.108-2.15-0.583-0.838-0.892-1.823-0.892-2.85 0-0.558 0.091-1.106 0.27-1.627zM1.798 8.039l8.644-2.695c-0.043 0.299-0.067 0.601-0.067 0.906 0 1.006 0.238 1.981 0.693 2.86l-6.149 2.050-3.121-3.121zM3.052 15.92l1.976-3.294 10.035 3.345-1.976 3.294c-1.072-0.357-8.891-2.964-10.035-3.345zM15.375 30.473l-8.75-3.281v-8.763c6.884 2.283 6.548 2.213 6.74 2.213 0.215 0 0.421-0.111 0.536-0.303l1.474-2.457v12.592zM16 14.966l-9.274-3.091 5.050-1.683c1.182 1.453 2.961 2.308 4.849 2.308 1.746 0 3.388-0.719 4.568-1.985l4.080 1.36-9.274 3.091zM26.625 27.175l-10 3.333v-13.101l2.216 2.769c0.161 0.201 0.43 0.283 0.675 0.206l7.109-2.234v9.027zM19.549 19.061l-2.502-3.127 10.033-3.344 3.123 3.123-10.654 3.348z"></path>
<path d="M13.719 24.512l-1.39-0.521c-0.323-0.121-0.683 0.043-0.805 0.366s0.043 0.683 0.366 0.805l1.39 0.521c0.324 0.121 0.684-0.043 0.805-0.366s-0.043-0.683-0.366-0.805z"></path>
<path d="M13.719 27.182l-3.75-1.406c-0.323-0.121-0.683 0.043-0.805 0.366s0.043 0.683 0.366 0.805l3.75 1.406c0.072 0.027 0.146 0.040 0.219 0.040 0.253 0 0.491-0.155 0.585-0.406 0.121-0.323-0.043-0.683-0.366-0.805z"></path>
<path d="M20.192 3.933c-0.244-0.244-0.64-0.244-0.884 0l-3.308 3.308-0.808-0.808c-0.244-0.244-0.64-0.244-0.884 0s-0.244 0.64 0 0.884l1.25 1.25c0.244 0.244 0.64 0.244 0.884 0l3.75-3.75c0.244-0.244 0.244-0.64 0-0.884z"></path>
</svg>
