<!-- Generated by IcoMoon.io -->
<svg version="1.1" xmlns="http://www.w3.org/2000/svg" width="32" height="32" viewBox="0 0 32 32">
<title>phone</title>
<path d="M27.055 4.547c-6.277-6.063-16.23-6.063-22.507 0-6.215 6.435-6.037 16.69 0.398 22.905 6.277 6.063 16.23 6.063 22.507 0 6.215-6.435 6.037-16.69-0.398-22.905zM26.691 26.691l-0.005-0.005c-5.907 5.902-15.48 5.897-21.382-0.010s-5.897-15.48 0.010-21.382 15.48-5.897 21.382 0.010c2.835 2.837 4.426 6.685 4.423 10.696 0 4.010-1.592 7.856-4.428 10.691z"></path>
<path d="M25.098 20.611l-3.035-3.024c-0.689-0.69-1.807-0.692-2.497-0.003-0.001 0.001-0.002 0.002-0.003 0.003l-1.739 1.739c-0.132 0.132-0.339 0.15-0.491 0.043-0.952-0.665-1.842-1.413-2.662-2.235-0.734-0.732-1.409-1.521-2.019-2.36-0.111-0.151-0.095-0.359 0.038-0.491l1.782-1.782c0.688-0.689 0.688-1.805 0-2.495l-3.035-3.035c-0.699-0.669-1.801-0.669-2.5 0l-0.961 0.961c-1.452 1.435-1.97 3.566-1.339 5.508 0.471 1.42 1.136 2.769 1.976 4.007 0.757 1.135 1.625 2.191 2.592 3.153 1.051 1.059 2.215 1.998 3.472 2.802 1.381 0.901 2.898 1.576 4.493 1.998 0.41 0.101 0.831 0.152 1.253 0.151 1.447-0.009 2.832-0.591 3.85-1.62l0.826-0.826c0.688-0.689 0.688-1.805-0-2.495zM24.334 22.369c-0.001 0.001-0.001 0.001-0.002 0.002l0.005-0.016-0.826 0.826c-1.061 1.075-2.607 1.517-4.077 1.166-1.48-0.396-2.888-1.027-4.169-1.868-1.19-0.761-2.293-1.65-3.288-2.651-0.916-0.909-1.739-1.908-2.457-2.981-0.785-1.154-1.407-2.412-1.847-3.737-0.505-1.556-0.086-3.264 1.080-4.412l0.961-0.961c0.267-0.268 0.701-0.269 0.97-0.002 0.001 0.001 0.001 0.001 0.002 0.002l3.035 3.035c0.268 0.267 0.269 0.701 0.002 0.97-0.001 0.001-0.001 0.001-0.002 0.002l-1.782 1.782c-0.511 0.506-0.576 1.309-0.151 1.89 0.644 0.884 1.358 1.717 2.133 2.489 0.864 0.868 1.804 1.658 2.808 2.36 0.58 0.405 1.366 0.336 1.868-0.162l1.722-1.75c0.267-0.268 0.701-0.269 0.97-0.002 0.001 0.001 0.001 0.001 0.002 0.002l3.040 3.045c0.268 0.267 0.269 0.701 0.002 0.97z"></path>
</svg>
