<!-- Generated by IcoMoon.io -->
<svg version="1.1" xmlns="http://www.w3.org/2000/svg" width="32" height="32" viewBox="0 0 32 32">
<title>rocket</title>
<path d="M1.258 31.278c0 0.347-0.281 0.629-0.629 0.629s-0.629-0.282-0.629-0.629c0-0.347 0.281-0.629 0.629-0.629s0.629 0.282 0.629 0.629z"></path>
<path d="M17.315 15.332c0 0.347-0.281 0.627-0.628 0.627s-0.628-0.281-0.628-0.627c0-0.347 0.281-0.627 0.628-0.627s0.628 0.281 0.628 0.627z"></path>
<path d="M24.905 7.377c-0.504-0.505-1.175-0.782-1.889-0.782s-1.384 0.278-1.889 0.782c-1.041 1.041-1.041 2.736 0 3.777 0.521 0.521 1.204 0.781 1.889 0.781s1.368-0.26 1.889-0.781c1.041-1.041 1.041-2.736 0-3.777zM24.018 10.267c-0.552 0.552-1.45 0.552-2.002 0s-0.552-1.45 0-2.002c0.267-0.267 0.623-0.415 1.001-0.415s0.734 0.147 1.001 0.415c0.552 0.552 0.552 1.45 0 2.002z"></path>
<path d="M7.838 25.716c-0.31-0.154-0.687-0.028-0.841 0.282l-0.747 1.501c-0.325 0.653-0.979 1.089-1.706 1.139l-0.869 0.059c-0.147 0.010-0.244-0.063-0.288-0.108s-0.118-0.142-0.108-0.288l0.059-0.869c0.050-0.727 0.486-1.381 1.139-1.706l1.501-0.747c0.31-0.154 0.436-0.531 0.282-0.841s-0.531-0.436-0.841-0.282l-1.501 0.747c-1.050 0.523-1.751 1.574-1.831 2.744l-0.059 0.869c-0.032 0.469 0.14 0.929 0.473 1.261 0.306 0.306 0.72 0.477 1.15 0.477 0.037 0 0.074-0.001 0.111-0.004l0.869-0.059c1.17-0.080 2.221-0.782 2.744-1.831l0.747-1.501c0.155-0.31 0.028-0.687-0.282-0.841z"></path>
<path d="M31.567 0.511c-0.294-0.29-0.7-0.442-1.112-0.415l-0.584 0.037c-5.239 0.334-10.141 2.863-13.451 6.938l-1.375 1.693-3.599-0.106c-0.006-0-0.012-0-0.018-0-2.854 0-5.538 1.111-7.556 3.13l-3.686 3.686c-0.175 0.175-0.231 0.438-0.142 0.669s0.306 0.389 0.553 0.401l7.803 0.401-0.318 0.392c-0.16 0.197-0.186 0.472-0.064 0.695 0.122 0.225 0.25 0.446 0.384 0.664l-1.85 2.197c-0.158 0.188-0.192 0.451-0.087 0.673 0.404 0.854 0.941 1.621 1.595 2.281 0.67 0.675 1.453 1.228 2.328 1.642 0.085 0.041 0.177 0.060 0.268 0.060 0.141 0 0.281-0.048 0.395-0.14 0.399-0.323 0.858-0.707 1.303-1.078 0.317-0.264 0.641-0.535 0.944-0.784 0.181 0.109 0.364 0.214 0.55 0.315 0.094 0.051 0.197 0.076 0.3 0.076 0.137 0 0.272-0.044 0.385-0.132l0.428-0.332 0.403 7.836c0.013 0.248 0.17 0.465 0.401 0.553 0.073 0.028 0.149 0.042 0.225 0.042 0.163 0 0.324-0.064 0.444-0.184l3.686-3.686c2.018-2.018 3.13-4.702 3.13-7.556v-3.437l1.454-1.128c4.358-3.382 7.012-8.482 7.282-13.991l0.015-0.305c0.020-0.413-0.137-0.816-0.431-1.106zM2.070 15.364l2.688-2.688c1.779-1.779 4.144-2.76 6.66-2.762l2.63 0.077-4.669 5.749-7.309-0.376zM11.548 23.367c-0.328 0.273-0.663 0.553-0.975 0.81-0.603-0.326-1.148-0.734-1.624-1.214-0.462-0.465-0.854-0.995-1.171-1.579l1.355-1.608c0.41 0.55 0.858 1.070 1.342 1.558 0 0 0.001 0.001 0.001 0.001s0 0 0 0 0 0 0.001 0c0.537 0.541 1.115 1.037 1.728 1.485-0.216 0.18-0.438 0.365-0.656 0.547zM21.992 20.48c0 2.519-0.981 4.887-2.762 6.669l-2.688 2.688-0.375-7.299 5.826-4.521v2.463zM30.73 1.861c-0.252 5.144-2.73 9.904-6.798 13.061l-9.841 7.637c-0.816-0.477-1.577-1.040-2.273-1.678l3.318-3.318c0.245-0.245 0.245-0.642 0-0.887s-0.642-0.245-0.887 0l-3.315 3.315c-0.609-0.675-1.149-1.409-1.609-2.194l8.069-9.934c3.090-3.804 7.666-6.164 12.557-6.476l0.584-0.037c0.077-0.005 0.128 0.033 0.151 0.056s0.063 0.074 0.059 0.151l-0.015 0.305z"></path>
</svg>
