<!-- Generated by IcoMoon.io -->
<svg version="1.1" xmlns="http://www.w3.org/2000/svg" width="32" height="32" viewBox="0 0 32 32">
<title>wallet</title>
<path d="M30.545 16.134v-4.498c0-1.525-1.183-2.765-2.678-2.886l-4.177-7.295c-0.387-0.675-1.012-1.157-1.76-1.357-0.744-0.199-1.523-0.094-2.189 0.293l-14.318 8.336h-2.515c-1.604 0-2.909 1.305-2.909 2.909v17.454c0 1.604 1.305 2.909 2.909 2.909h24.727c1.604 0 2.909-1.305 2.909-2.909v-4.498c0.845-0.301 1.454-1.101 1.454-2.048v-4.364c0-0.947-0.61-1.747-1.454-2.048zM26.178 8.728h-6.339l4.754-2.768 1.585 2.768zM23.87 4.697l-6.922 4.030h-2.871l9.076-5.284 0.718 1.254zM20.474 1.649c0.329-0.192 0.713-0.244 1.080-0.146 0.371 0.099 0.681 0.339 0.874 0.675l0.002 0.003-11.244 6.546h-2.871l12.159-7.079zM29.091 29.091c0 0.802-0.653 1.454-1.454 1.454h-24.727c-0.802 0-1.454-0.653-1.454-1.454v-17.454c0-0.802 0.653-1.454 1.454-1.454h24.727c0.802 0 1.454 0.653 1.454 1.454v4.364h-4.364c-2.406 0-4.364 1.957-4.364 4.364s1.957 4.364 4.364 4.364h4.364v4.364zM30.545 22.546c0 0.401-0.326 0.727-0.727 0.727h-5.091c-1.604 0-2.909-1.305-2.909-2.909s1.305-2.909 2.909-2.909h5.091c0.401 0 0.727 0.326 0.727 0.727v4.364z"></path>
<path d="M24.727 18.909c-0.802 0-1.454 0.653-1.454 1.454s0.653 1.454 1.454 1.454c0.802 0 1.454-0.653 1.454-1.454s-0.653-1.454-1.454-1.454z"></path>
</svg>
